<svg xmlns="http://www.w3.org/2000/svg" width="87" height="74.001" viewBox="0 0 87 74.001"><defs><style>.a{fill:#fe0000;}</style></defs><path class="a" d="M1223.225,1683.384l-30.158-30.174a24.135,24.135,0,1,1,34.124-34.14l2.354,2.356,2.353-2.355a24.117,24.117,0,0,1,34.319.2,24.372,24.372,0,0,1-.391,34.14l-29.964,29.977a8.941,8.941,0,0,1-12.636,0Zm-27-61.154a19.679,19.679,0,0,0,0,27.819l30.158,30.173a4.469,4.469,0,0,0,6.318,0l29.964-29.976a19.886,19.886,0,0,0,.356-27.855,19.652,19.652,0,0,0-27.964-.162l-9.118,9.13a2.234,2.234,0,1,1-3.161-3.159l3.608-3.613-2.356-2.358a19.653,19.653,0,0,0-27.8,0Zm64.548,13.172a11.858,11.858,0,0,0-8.619-10.679,2.234,2.234,0,0,1,1.2-4.306,16.32,16.32,0,0,1,11.881,14.71,2.234,2.234,0,0,1-2.092,2.368c-.047,0-.094,0-.139,0A2.235,2.235,0,0,1,1260.774,1635.4Z" transform="translate(-1186 -1611.998)"/></svg>