<svg xmlns="http://www.w3.org/2000/svg" width="129" height="60.998" viewBox="0 0 129 60.998"><defs><style>.a{fill:#fe0000;}</style></defs><path class="a" d="M229.866,1670.331a13.56,13.56,0,0,1,2.073-7.216l-15.033-15a13.685,13.685,0,0,1-14.94,0l-14.8,14.764a13.718,13.718,0,1,1-4-3.994l14.8-14.765a13.7,13.7,0,1,1,22.945,0l14.951,14.92a13.683,13.683,0,0,1,15.174-.153l14.8-14.766a13.56,13.56,0,0,1-2.226-7.453,13.706,13.706,0,1,1,6.23,11.448l-14.8,14.766a13.683,13.683,0,1,1-25.17,7.452Zm5.661,0a8.036,8.036,0,1,0,8.036-8.018A8.036,8.036,0,0,0,235.527,1670.331Zm-67.866,0a8.036,8.036,0,1,0,8.036-8.018A8.036,8.036,0,0,0,167.661,1670.331Zm101.606-33.665a8.036,8.036,0,1,0,8.035-8.017A8.036,8.036,0,0,0,269.267,1636.665Zm-67.866,0a8.036,8.036,0,1,0,8.035-8.017A8.036,8.036,0,0,0,201.4,1636.665Zm-4.623,30.775a2.818,2.818,0,0,1,0-3.993l5.758-5.746a2.827,2.827,0,0,1,4,3.994l-5.758,5.745a2.832,2.832,0,0,1-4,0Zm49.681-18.043a2.821,2.821,0,0,1,0-4l5.758-5.746a2.828,2.828,0,1,1,4,4l-5.758,5.746a2.835,2.835,0,0,1-4,0Z" transform="translate(-162 -1622.999)"/></svg>