<svg xmlns="http://www.w3.org/2000/svg" width="102" height="90.003" viewBox="0 0 102 90.003"><defs><style>.a{fill:#fe0000;}</style></defs><path class="a" d="M1183.42,1456a2.42,2.42,0,0,1,0-4.84h97.16a2.42,2.42,0,1,1,0,4.84Zm73.965-13.57h-67.693a2.416,2.416,0,0,1-2.41-2.421v-46.354a2.416,2.416,0,0,1,2.41-2.423h16.923a2.416,2.416,0,0,1,2.41,2.423v20.581h12.1v-45.817a2.416,2.416,0,0,1,2.409-2.422h16.924a2.416,2.416,0,0,1,2.41,2.422v27.894h12.1V1379.85a2.415,2.415,0,0,1,2.409-2.421h16.924a2.415,2.415,0,0,1,2.409,2.421v60.159a2.417,2.417,0,0,1-2.41,2.421Zm2.41-43.7v38.853h12.1v-55.315h-12.1Zm-16.924,38.853h12.1v-36.43h-12.1Zm-16.924,0h12.1V1370.84h-12.1Zm-16.923,0h12.1V1419.08h-12.1Zm-16.924,0h12.1v-41.511h-12.1Z" transform="translate(-1181 -1365.998)"/></svg>