<svg xmlns="http://www.w3.org/2000/svg" width="98.001" height="104" viewBox="0 0 98.001 104"><defs><style>.a{fill:#fe0000;}</style></defs><path class="a" d="M862.87,1457.492a2.031,2.031,0,0,1,1.44-2.488l11.017-2.945-6.747-25.115-11.016,2.946a2.032,2.032,0,1,1-1.055-3.924l12.983-3.47a2.037,2.037,0,0,1,2.495,1.436l1.065,3.964,15.355-6.162a18.038,18.038,0,0,1,13.163-.121l15.49,5.888a7.327,7.327,0,0,1,4.017,10.013,7.464,7.464,0,0,1-.93,1.465,21.272,21.272,0,0,0,10.443-1.785l12.991-5.829a6.73,6.73,0,0,1,8.1,2.1,6.651,6.651,0,0,1-2.171,9.832l-7.37,3.991a2.033,2.033,0,1,1-1.944-3.57l7.37-3.991a2.6,2.6,0,0,0,.848-3.837,2.631,2.631,0,0,0-3.161-.819l-12.99,5.829a25.356,25.356,0,0,1-17.4,1.226l-15.016-4.4a2.032,2.032,0,1,1,1.148-3.9l12.529,3.667a3.268,3.268,0,0,0,3.883-1.728,3.267,3.267,0,0,0-1.792-4.466l-15.49-5.888a13.971,13.971,0,0,0-10.192.094l-15.814,6.349,5.674,21.119a2.031,2.031,0,0,1-1.44,2.488l-12.983,3.469a2.039,2.039,0,0,1-2.495-1.436Zm39.441,0-18.159-5.691a2.032,2.032,0,1,1,1.221-3.875l18.159,5.691a29.007,29.007,0,0,0,22.361-2.16l2-1.082a2.033,2.033,0,1,1,1.944,3.57l-2,1.082a33.1,33.1,0,0,1-25.526,2.465Zm31.37-7.286a2.026,2.026,0,0,1,0-2.872,2.031,2.031,0,1,1,0,2.872Zm-68.309-1.558a2.038,2.038,0,1,1,1.44.6A2.044,2.044,0,0,1,865.372,1448.652Zm15.289-60.748a32.993,32.993,0,1,1,32.993,32.907A32.988,32.988,0,0,1,880.661,1387.9Zm4.073,0a28.92,28.92,0,1,0,28.92-28.843A28.914,28.914,0,0,0,884.734,1387.9Zm16.373,23.319a2.032,2.032,0,1,1,1.931-3.577,22.589,22.589,0,0,0,26.463-3.881,22.373,22.373,0,1,0-35.572-5.207,2.035,2.035,0,0,1-3.586,1.927,26.555,26.555,0,0,1-2.9-16.178,26.5,26.5,0,1,1,26.264,30.06A26.719,26.719,0,0,1,901.107,1411.223Zm12.14-5.67v-1.742h-1.426v1.742a2.037,2.037,0,0,1-4.073,0v-1.742H905a2.029,2.029,0,0,1-.706-3.935v-23.818a2.029,2.029,0,0,1,.706-3.935h2.75v-1.744a2.037,2.037,0,0,1,4.073,0v1.744h1.426v-1.744a2.037,2.037,0,0,1,4.073,0v1.893a62.833,62.833,0,0,0,7.339,22.6,8.957,8.957,0,0,1-7.339,8.788v1.893a2.037,2.037,0,0,1-4.073,0Zm-4.881-5.8H915.7a4.875,4.875,0,1,0,0-9.751h-7.331Zm0-13.813H915.7a4.875,4.875,0,1,0,0-9.75h-7.331Zm-13.437,20.722a2.027,2.027,0,0,1-.009-2.873l.015-.014a2.034,2.034,0,1,1,2.89,2.862l-.016.017a2.039,2.039,0,0,1-2.88.008Z" transform="translate(-854.999 -1354.997)"/></svg>