<svg xmlns="http://www.w3.org/2000/svg" width="101" height="81" viewBox="0 0 101 81"><defs><style>.a{fill:#fe0000;}</style></defs><path class="a" d="M938.607,1692.3l-12.029-12.033H896.887a5.694,5.694,0,0,1-5.687-5.689V1646.84a5.694,5.694,0,0,1,5.687-5.689h47.426A5.693,5.693,0,0,1,950,1646.84v27.738a5.7,5.7,0,0,1-5.687,5.689h-1.638v10.347a2.382,2.382,0,0,1-4.067,1.686Zm-42.642-45.46v27.738a.924.924,0,0,0,.922.922h30.679a2.37,2.37,0,0,1,1.569.592c.031.025.063.055.1.087l.028.027,8.651,8.654s0-7.109.01-7.162a2.382,2.382,0,0,1,2.373-2.2h4.019a.924.924,0,0,0,.922-.922V1646.84a.924.924,0,0,0-.922-.924H896.887A.923.923,0,0,0,895.965,1646.84Zm-35.414,34.536a2.382,2.382,0,0,1-1.471-2.2v-15.137h-4.393a5.7,5.7,0,0,1-5.688-5.69v-40.66a5.694,5.694,0,0,1,5.688-5.689H922.44a5.694,5.694,0,0,1,5.687,5.689v15.6a2.382,2.382,0,1,1-4.765,0v-15.6a.923.923,0,0,0-.923-.922H854.688a.923.923,0,0,0-.923.922v40.661a.923.923,0,0,0,.923.922h6.774a2.384,2.384,0,0,1,2.372,2.172c.007.06.012,11.978.012,11.978l13.447-13.451a2.369,2.369,0,0,1,1.524-.69c.047,0,4.523-.008,4.523-.008a2.384,2.384,0,0,1,0,4.767h-3.374l-16.817,16.822a2.385,2.385,0,0,1-2.6.517Zm68.738-20.666a2.38,2.38,0,1,1,2.38,2.38A2.38,2.38,0,0,1,929.29,1660.71Zm-11.07,0a2.38,2.38,0,1,1,2.38,2.38A2.38,2.38,0,0,1,918.22,1660.71Zm-11.07,0a2.38,2.38,0,1,1,2.381,2.38A2.38,2.38,0,0,1,907.15,1660.71Zm-40.27-12.43a2.379,2.379,0,0,1-2.38-2.38v-.01a2.379,2.379,0,0,1,2.38-2.38h16.46a2.38,2.38,0,0,1,2.38,2.38v.01a2.38,2.38,0,0,1-2.38,2.38Zm0-15.75a2.379,2.379,0,0,1-2.38-2.38v-.01a2.379,2.379,0,0,1,2.38-2.38h43.37a2.38,2.38,0,0,1,2.38,2.38v.01a2.38,2.38,0,0,1-2.38,2.38Z" transform="translate(-849 -1611.998)"/></svg>