<svg xmlns="http://www.w3.org/2000/svg" width="107" height="103.001" viewBox="0 0 107 103.001"><defs><style>.a{fill:#fe0000;}</style></defs><path class="a" d="M570.824,1462.531,555.9,1451.5v9.088a2.4,2.4,0,1,1-4.793,0V1451.5l-14.927,11.035a2.383,2.383,0,0,1-3.35-.519,2.427,2.427,0,0,1,.515-3.376L551.1,1445.5v-7.091H510.239a4.818,4.818,0,0,1-4.793-4.831v-54.3h-.652a4.818,4.818,0,0,1-4.793-4.832v-4.482a4.819,4.819,0,0,1,4.793-4.833H551.1v-2.718a2.4,2.4,0,1,1,4.793,0v2.718h46.31a4.819,4.819,0,0,1,4.793,4.833v4.482a4.818,4.818,0,0,1-4.793,4.831h-.652v54.3a4.818,4.818,0,0,1-4.793,4.831H555.9v7.091l17.762,13.132a2.427,2.427,0,0,1,.515,3.376,2.381,2.381,0,0,1-3.35.519Zm-60.585-28.949h86.522v-54.3H510.239Zm-5.445-59.134h97.412v-4.482H504.794Zm27.8,32.85a2.165,2.165,0,0,1,2.157-2.174H551.3V1388.45a2.166,2.166,0,0,1,2.156-2.174A21.022,21.022,0,1,1,532.6,1407.3Zm20.857,16.672a16.681,16.681,0,0,0,2.157-33.2V1407.3a2.165,2.165,0,0,1-2.157,2.174h-16.4A16.611,16.611,0,0,0,553.454,1423.97Zm-20.93-21.856a2.166,2.166,0,0,1-2.157-2.174,15.868,15.868,0,0,1,15.787-15.913,2.166,2.166,0,0,1,2.157,2.174v13.739a2.166,2.166,0,0,1-2.157,2.174Zm2.361-4.348H544v-9.185A11.55,11.55,0,0,0,534.884,1397.766Z" transform="translate(-500 -1359.998)"/></svg>