<svg xmlns="http://www.w3.org/2000/svg" width="104" height="104" viewBox="0 0 104 104"><defs><style>.a{fill:#fe0000;}</style></defs><path class="a" d="M215.053,1459a2.032,2.032,0,0,1-1.936-2.645c.3-.938.789-2.176,1.359-3.61.851-2.144,1.815-4.573,2.443-6.758.807-2.807.619-3.747.555-3.947a36.35,36.35,0,0,1-12.006-21.28h-4.713a2.031,2.031,0,0,1-2.031-2.031v-8.19c-.713-.256-1.414-.547-2.1-.87l-5.792,5.791a2.032,2.032,0,0,1-2.873,0l-8.661-8.66a2.03,2.03,0,0,1,0-2.873l5.792-5.792q-.485-1.027-.87-2.1h-8.19A2.032,2.032,0,0,1,174,1394v-12.248a2.031,2.031,0,0,1,2.031-2.03h8.19q.386-1.069.871-2.1l-5.792-5.792a2.031,2.031,0,0,1,0-2.872l8.661-8.661a2.03,2.03,0,0,1,2.873,0l5.792,5.792q1.029-.483,2.1-.869v-8.191a2.032,2.032,0,0,1,2.031-2.031H213a2.032,2.032,0,0,1,2.031,2.031v8.191q1.069.385,2.1.869l5.792-5.792a2.032,2.032,0,0,1,2.873,0l8.661,8.661a2.031,2.031,0,0,1,0,2.872l-5.792,5.792q.486,1.03.871,2.1h1a36.421,36.421,0,0,1,10.84-1.643c11.1,0,23.566,6.616,29.651,15.73,3.956,5.927,4.822,12.407,2.447,18.261.024.958,1.4,3.85,2.237,5.6,1.416,2.969,2.284,4.864,2.284,6.3,0,1.888-1.809,3.13-3.723,4.445a17.716,17.716,0,0,0-1.8,1.34,36.207,36.207,0,0,0,.021,5.729c.207,3.846.4,7.477-1.326,9.968-3.4,4.9-7.276,4.682-13.7,4.325-2.189-.121-4.67-.257-7.707-.257a2.051,2.051,0,0,1-.315-.025.408.408,0,0,0-.113-.007c-.562.31-1.129,2.882-1.37,3.979a19.715,19.715,0,0,1-.841,3.075c-.824,2.032-2.132,2.459-3.085,2.459Zm5.157-19.966c2.82,2.439.967,7.843-1.958,15.21l-.275.694H243.4a21.418,21.418,0,0,0,.6-2.345,18.887,18.887,0,0,1,1.369-4.45,4.325,4.325,0,0,1,4.533-2.686c3.09,0,5.7.149,7.795.265,6.364.352,8.113.325,10.133-2.588.935-1.345.76-4.58.607-7.432a36.2,36.2,0,0,1,.054-6.83c.222-1.57,1.733-2.605,3.481-3.807a19.413,19.413,0,0,0,1.9-1.418,36.84,36.84,0,0,0-1.827-4.229c-1.994-4.183-3.176-6.844-2.379-8.763,2.447-5.891.254-11.185-2.017-14.586-5.3-7.938-16.593-13.924-26.272-13.924-.542,0-1.083.015-1.621.041V1394a2.032,2.032,0,0,1-2.031,2.032h-8.191c-.257.713-.547,1.415-.87,2.1l5.792,5.792a2.033,2.033,0,0,1,0,2.874l-8.661,8.66a2.032,2.032,0,0,1-2.873,0l-5.792-5.792c-.686.323-1.387.615-2.1.869v8.191a2.03,2.03,0,0,1-2.031,2.03H209.6A32.3,32.3,0,0,0,220.21,1439.031Zm-22.995-33.623a19.867,19.867,0,0,0,4.1,1.7,2.03,2.03,0,0,1,1.468,1.951v7.635h8.186v-7.635a2.03,2.03,0,0,1,1.469-1.951,19.847,19.847,0,0,0,4.1-1.7,2.032,2.032,0,0,1,2.419.341l5.4,5.4,5.789-5.789-5.4-5.4a2.031,2.031,0,0,1-.341-2.419,19.95,19.95,0,0,0,1.7-4.1,2.032,2.032,0,0,1,1.951-1.469H235.7v-8.186h-7.637a2.031,2.031,0,0,1-1.951-1.469,19.871,19.871,0,0,0-1.7-4.1,2.031,2.031,0,0,1,.341-2.419l5.4-5.4-5.789-5.788-5.4,5.4a2.029,2.029,0,0,1-2.418.342,19.85,19.85,0,0,0-4.1-1.7,2.029,2.029,0,0,1-1.469-1.95v-7.636h-8.186v7.636a2.029,2.029,0,0,1-1.468,1.95,19.877,19.877,0,0,0-4.1,1.7,2.032,2.032,0,0,1-2.419-.341l-5.4-5.4-5.788,5.788,5.4,5.4a2.031,2.031,0,0,1,.341,2.419,19.931,19.931,0,0,0-1.7,4.1,2.031,2.031,0,0,1-1.951,1.467h-7.635v8.186H185.7a2.032,2.032,0,0,1,1.951,1.468,19.939,19.939,0,0,0,1.7,4.1,2.033,2.033,0,0,1-.342,2.419l-5.4,5.4,5.788,5.789,5.4-5.4a2.029,2.029,0,0,1,2.419-.341Zm65.894-.728a2.031,2.031,0,0,1,3.63-1.824c.021.04.04.081.058.12a2.031,2.031,0,0,1-3.687,1.7Zm-2.832-4.5a27.388,27.388,0,0,0-1.859-2.178,23.783,23.783,0,0,0-13.081-7.234,2.031,2.031,0,1,1,.7-4,27.81,27.81,0,0,1,15.321,8.433,31.283,31.283,0,0,1,2.137,2.5,2.031,2.031,0,0,1-3.219,2.479Zm-62.376-1.643a13.939,13.939,0,0,1,2.751-23.128,2.031,2.031,0,0,1,1.818,3.633,9.877,9.877,0,0,0-1.95,16.39,2.031,2.031,0,0,1-2.619,3.105Zm8.979-2.816a7.842,7.842,0,1,1,7.842-7.842,7.851,7.851,0,0,1-7.842,7.842Zm-3.78-7.842a3.78,3.78,0,1,0,3.78-3.78A3.784,3.784,0,0,0,203.1,1387.877Zm1.678-11.905a2.031,2.031,0,0,1,2.031-2.031h.071a2.031,2.031,0,0,1,0,4.063h-.071A2.032,2.032,0,0,1,204.778,1375.972Z" transform="translate(-174 -1354.997)"/></svg>