<svg xmlns="http://www.w3.org/2000/svg" width="94.998" height="83" viewBox="0 0 94.998 83"><defs><style>.a{fill:#fe0000;}</style></defs><path class="a" d="M507,1651.5a41.829,41.829,0,0,1,66.833-33.2,2.51,2.51,0,0,1,.5,3.531,2.55,2.55,0,0,1-3.554.5,36.41,36.41,0,1,0,14.688,29.172c0-.878-.031-1.759-.094-2.616a2.538,2.538,0,0,1,5.063-.362c.071.977.107,1.979.107,2.978a41.775,41.775,0,0,1-83.549,0Zm36.887,23.745-22.328-22.182a9.8,9.8,0,0,1,0-13.911,9.96,9.96,0,0,1,14,0l12.964,12.879L585.1,1615.7a9.96,9.96,0,0,1,14,0,9.8,9.8,0,0,1,0,13.911l-45.936,45.635a6.6,6.6,0,0,1-9.28,0Zm-18.738-32.528a4.778,4.778,0,0,0,0,6.781l22.328,22.181a1.494,1.494,0,0,0,2.1,0l45.936-45.635a4.777,4.777,0,0,0,0-6.781,4.855,4.855,0,0,0-6.825,0l-36.944,36.7a4.571,4.571,0,0,1-6.435,0l-13.337-13.25a4.852,4.852,0,0,0-6.824,0Z" transform="translate(-507 -1609.998)"/></svg>